<?xml version="1.0"?>
<svg xmlns="http://www.w3.org/2000/svg" height="512px" viewBox="0 0 480 480" width="512px" class=""><g><path d="m240 0c-132.546875 0-240 107.453125-240 240s107.453125 240 240 240 240-107.453125 240-240c-.148438-132.484375-107.515625-239.851562-240-240zm0 464c-123.710938 0-224-100.289062-224-224s100.289062-224 224-224 224 100.289062 224 224c-.140625 123.652344-100.347656 223.859375-224 224zm0 0" data-original="#000000" class="active-path" data-old_color="#6d416d" fill="#6d416d"/><path d="m328 200v-24h-56v-96h-64v96h-56v24l88 96zm-104-8v-96h32v96h56l-72 80-69.527344-80zm0 0" data-original="#000000" class="active-path" data-old_color="#6d416d" fill="#6d416d"/><path d="m336 312h-192v-88h-56v144h304v-144h-56zm16-72h24v112h-272v-112h24v88h224zm0 0" data-original="#000000" class="active-path" data-old_color="#6d416d" fill="#6d416d"/></g> </svg>
