<svg xmlns="http://www.w3.org/2000/svg" xmlns:xlink="http://www.w3.org/1999/xlink" viewBox="0 0 319.91 75"><defs><style>.cls-1{fill:url(#New_Gradient_Swatch_1);}.cls-2{fill:#fff;}</style><linearGradient id="New_Gradient_Swatch_1" x1="-4091.13" y1="37.5" x2="-4029.39" y2="37.5" gradientTransform="matrix(-1.06, 0, 0, 1, -4266.53, 0)" gradientUnits="userSpaceOnUse"><stop offset="0" stop-color="#fd52b9"/><stop offset="0.41" stop-color="#eb7a67"/><stop offset="0.82" stop-color="#da9d1d"/><stop offset="1" stop-color="#d4ab00"/></linearGradient></defs><title>logo-app</title><g id="Layer_2" data-name="Layer 2"><g id="Layer_1-2" data-name="Layer 1"><path class="cls-1" d="M55.1,22.87c-7.42-.76-14.83-1.55-21.29,3.47l-.18-3.45c-3.86,2.9-5,6.63-5.61,10.93l-1.65-2.58-.68.14.58,11.71c-4.15-6-6-12.36-4.14-19.48C24.16,16,29.3,10.5,35.93,6.07a26.88,26.88,0,0,0,2.7-2.27c1.28-1.12,2.54-2.27,4.25-3.8a23.32,23.32,0,0,1,.65,3c.08,1.39-.13,2.81.06,4.18a6.84,6.84,0,0,0,1.15,3.28c3.22,4,6.94,7.45,12.24,9,1.82.53,2.05,1.63.54,2.77a22.81,22.81,0,0,1-5.48,3.24,28.16,28.16,0,0,1-6.71,1.43c-1.51.17-1.88.87-1.34,1.88a13.66,13.66,0,0,0,2.86,4c2.18,1.87,4.77,3.3,7,5.15,2.77,2.32,5.73,4.59,7.85,7.4,3.45,4.55,1.06,8.77-4.82,9.37-7.55.77-14.3-1.37-20.62-5A2.51,2.51,0,0,1,35,48,123,123,0,0,1,35,34.8c.37-4.59,3.25-7.61,7.08-8.3,1.82-.33,3.68-.46,5.5-.81C50.23,25.2,53,24.89,55.1,22.87ZM5.69,74.43a2.13,2.13,0,0,1-.51-.3C.81,69.21-1.17,63.66.7,57.3,3.11,49.13,8.28,46,15.95,46.58A35.85,35.85,0,0,1,32.2,52.2c6.3,3.86,12.95,6.9,20.56,7.58,4.44.39,8.41-.61,11.43-3.94a3.37,3.37,0,0,0,.43-1l.76.46c-.34,1.88-.53,3.79-1.05,5.62C62.39,67.72,58.61,73,50.8,74.58c-5.17,1-10.2,0-15.1-1.5-5.16-1.62-10.23-3.48-15.42-5A22.69,22.69,0,0,0,9.87,67c-2.92.51-4.51,2.25-4.45,5C5.44,72.84,5.59,73.6,5.69,74.43Z"/><path class="cls-2" d="M114.6,49.55a6.28,6.28,0,0,0-2.15-5q-2.15-1.85-7.85-3.51a27,27,0,0,1-8.33-3.63,8.67,8.67,0,0,1-3.74-7.29A8.65,8.65,0,0,1,96,23a13.9,13.9,0,0,1,8.88-2.74,14.28,14.28,0,0,1,6.55,1.47,10.87,10.87,0,0,1,4.48,4.09,11,11,0,0,1,1.59,5.85h-3.13a8.17,8.17,0,0,0-2.58-6.3A9.8,9.8,0,0,0,104.88,23a10.62,10.62,0,0,0-6.72,2A6.18,6.18,0,0,0,95.66,30a5.86,5.86,0,0,0,2.25,4.75,20.47,20.47,0,0,0,7.2,3.24,33.08,33.08,0,0,1,7.5,2.91,10.85,10.85,0,0,1,3.84,3.6,9.29,9.29,0,0,1,1.29,5,8.74,8.74,0,0,1-3.47,7.24,14.4,14.4,0,0,1-9.16,2.73A17.38,17.38,0,0,1,98,58,11,11,0,0,1,93,54a10.71,10.71,0,0,1-1.68-6h3.11a7.73,7.73,0,0,0,2.9,6.37,12,12,0,0,0,7.73,2.33,11.15,11.15,0,0,0,6.9-2A6.22,6.22,0,0,0,114.6,49.55Z"/><path class="cls-2" d="M141,58.93a15.32,15.32,0,0,1-.58-4,10.62,10.62,0,0,1-4.05,3.32,12,12,0,0,1-5.22,1.17,9,9,0,0,1-6.38-2.28,7.56,7.56,0,0,1-2.44-5.77,7.68,7.68,0,0,1,3.32-6.55q3.32-2.41,9.26-2.41h5.48V39.22a6.34,6.34,0,0,0-1.81-4.78,7.29,7.29,0,0,0-5.27-1.74,8,8,0,0,0-5.23,1.68,5,5,0,0,0-2.07,4l-3,0a7.37,7.37,0,0,1,3-5.86A11.39,11.39,0,0,1,133.44,30a10.39,10.39,0,0,1,7.21,2.37A8.67,8.67,0,0,1,143.37,39V52.46a17.23,17.23,0,0,0,.83,6.16v.31Zm-9.5-2.25a9.86,9.86,0,0,0,5.42-1.52,8.84,8.84,0,0,0,3.47-4.06V44.85H135a13.14,13.14,0,0,0-7.07,1.72,5.41,5.41,0,0,0-.85,8.53A6.27,6.27,0,0,0,131.47,56.68Z"/><path class="cls-2" d="M154.81,58.93h-3V18.66h3Z"/><path class="cls-2" d="M166.4,58.93h-3V18.66h3Z"/><path class="cls-2" d="M183.27,54.42l8-23.86h3.26L182.84,63.76l-.61,1.47q-2.25,5.17-6.95,5.17A8.17,8.17,0,0,1,173,70l0-2.6,1.57.16a5.46,5.46,0,0,0,3.6-1.14,8.71,8.71,0,0,0,2.34-3.92l1.34-3.83-10.3-28.13h3.31Z"/><path class="cls-2" d="M218.2,49.1a4.68,4.68,0,0,0-1.71-3.88,20.14,20.14,0,0,0-6.15-2.75,29.15,29.15,0,0,1-7.07-3.09q-5-3.28-5-8.55a9.43,9.43,0,0,1,3.62-7.6,14.31,14.31,0,0,1,9.41-3,15.4,15.4,0,0,1,6.84,1.47,11.38,11.38,0,0,1,4.72,4.18,11,11,0,0,1,1.72,6H218.2a6,6,0,0,0-1.81-4.64,7.31,7.31,0,0,0-5.17-1.68A7.6,7.6,0,0,0,206.37,27a4.67,4.67,0,0,0-1.73,3.86,4.21,4.21,0,0,0,1.87,3.49A21.16,21.16,0,0,0,212.67,37a27.7,27.7,0,0,1,6.9,3,11.19,11.19,0,0,1,3.81,3.88A10.41,10.41,0,0,1,224.59,49a9.21,9.21,0,0,1-3.52,7.59q-3.52,2.82-9.56,2.82a17.42,17.42,0,0,1-7.34-1.53,12.41,12.41,0,0,1-5.2-4.23,10.83,10.83,0,0,1-1.86-6.29h6.39a6.28,6.28,0,0,0,2.07,5,8.84,8.84,0,0,0,5.94,1.78,7.67,7.67,0,0,0,5-1.4A4.59,4.59,0,0,0,218.2,49.1Z"/><path class="cls-2" d="M245.94,58.93a10.13,10.13,0,0,1-.71-2.65,10,10,0,0,1-13.89.73,7.93,7.93,0,0,1-2.6-6A8.16,8.16,0,0,1,232,44q3.24-2.42,9.28-2.42H245V39.74a5.09,5.09,0,0,0-1.19-3.53,4.61,4.61,0,0,0-3.61-1.32A5.27,5.27,0,0,0,236.79,36a3.41,3.41,0,0,0-1.34,2.77h-6.14a7.24,7.24,0,0,1,1.49-4.37,10,10,0,0,1,4.05-3.19A13.78,13.78,0,0,1,240.58,30a11.19,11.19,0,0,1,7.65,2.5,9.09,9.09,0,0,1,2.93,7V52.38a15,15,0,0,0,1,6.11v.45Zm-6.74-4.59a6.79,6.79,0,0,0,3.42-.92A6,6,0,0,0,245,51V45.61h-3.31a8.78,8.78,0,0,0-5.13,1.23,4,4,0,0,0-1.72,3.49A3.79,3.79,0,0,0,236,53.26,4.44,4.44,0,0,0,239.19,54.34Z"/><path class="cls-2" d="M264.12,58.93H258V18.66h6.14Z"/><path class="cls-2" d="M282.83,59.46a12.45,12.45,0,0,1-9.46-3.81q-3.62-3.81-3.62-10.16V44.7a17.56,17.56,0,0,1,1.58-7.59,12.33,12.33,0,0,1,4.43-5.21A11.41,11.41,0,0,1,282.13,30q5.58,0,8.63,3.7t3,10.46v2.57H275.94a8.67,8.67,0,0,0,2.26,5.56,6.66,6.66,0,0,0,5,2,8.21,8.21,0,0,0,6.87-3.54l3.31,3.28A11.19,11.19,0,0,1,289,58.05,13.31,13.31,0,0,1,282.83,59.46Zm-.73-24.3A5.08,5.08,0,0,0,278,37a9.71,9.71,0,0,0-2,5.11h11.69v-.47a7.92,7.92,0,0,0-1.64-4.84A5,5,0,0,0,282.1,35.15Z"/><path class="cls-2" d="M313.88,51.22a2.92,2.92,0,0,0-1.35-2.6A14,14,0,0,0,308,47.06a22.47,22.47,0,0,1-5.23-1.73q-4.6-2.31-4.6-6.69a7.65,7.65,0,0,1,3-6.13A11.49,11.49,0,0,1,308.77,30a12,12,0,0,1,7.92,2.52,8.1,8.1,0,0,1,3,6.53h-6.14A4,4,0,0,0,312.26,36a4.92,4.92,0,0,0-3.49-1.22,5.3,5.3,0,0,0-3.3,1,3.09,3.09,0,0,0-1.28,2.6,2.61,2.61,0,0,0,1.19,2.28,15.92,15.92,0,0,0,4.8,1.64,22.2,22.2,0,0,1,5.67,2A8.13,8.13,0,0,1,318.91,47a7.19,7.19,0,0,1,1,3.88,7.48,7.48,0,0,1-3.06,6.2,12.69,12.69,0,0,1-8,2.37,13.71,13.71,0,0,1-6-1.26,9.94,9.94,0,0,1-4.09-3.46A8.41,8.41,0,0,1,297.31,50h6a4.55,4.55,0,0,0,1.64,3.47,6.22,6.22,0,0,0,4,1.22,6,6,0,0,0,3.69-1A3,3,0,0,0,313.88,51.22Z"/><path class="cls-2" d="M13,59.1l4.82-4.26-8-1.57,3.16-5.09c-2.34-.63-5.2.38-7.24,2.69C2.57,54.43,1.82,58.73,2,63.19A29.88,29.88,0,0,0,3.39,69.8C7.32,62.15,14.3,64,20.75,64.38L21,63.8Z"/><path class="cls-2" d="M41,5s1.24,5.27,0,6c-.73.43-2.47-.51-3-2C37.28,7,41,5,41,5Z"/></g></g></svg>