<svg xmlns="http://www.w3.org/2000/svg" xmlns:xlink="http://www.w3.org/1999/xlink" viewBox="0 0 322.11 75"><defs><style>.cls-1{fill:url(#New_Gradient_Swatch_1);}.cls-2{font-size:53.69px;fill:#fff;font-family:Roboto-Light, Roboto;}.cls-3{font-family:Roboto-Medium, Roboto;}</style><linearGradient id="New_Gradient_Swatch_1" x1="-4091.13" y1="37.5" x2="-4029.39" y2="37.5" gradientTransform="matrix(-1.06, 0, 0, 1, -4266.53, 0)" gradientUnits="userSpaceOnUse"><stop offset="0" stop-color="#fd52b9"/><stop offset="0.41" stop-color="#eb7a67"/><stop offset="0.82" stop-color="#da9d1d"/><stop offset="1" stop-color="#d4ab00"/></linearGradient></defs><title>logo-white-lok</title><g id="Layer_2" data-name="Layer 2"><g id="Layer_1-2" data-name="Layer 1"><path class="cls-1" d="M55.1,22.87c-7.42-.76-14.83-1.55-21.29,3.47l-.18-3.45c-3.86,2.9-5,6.63-5.61,10.93l-1.65-2.58-.68.14.58,11.71c-4.15-6-6-12.36-4.14-19.48C24.16,16,29.3,10.5,35.93,6.07a26.88,26.88,0,0,0,2.7-2.27c1.28-1.12,2.54-2.27,4.25-3.8a23.32,23.32,0,0,1,.65,3c.08,1.39-.13,2.81.06,4.18a6.84,6.84,0,0,0,1.15,3.28c3.22,4,6.94,7.45,12.24,9,1.82.53,2.05,1.63.54,2.77a22.81,22.81,0,0,1-5.48,3.24,28.16,28.16,0,0,1-6.71,1.43c-1.51.17-1.88.87-1.34,1.88a13.66,13.66,0,0,0,2.86,4c2.18,1.87,4.77,3.3,7,5.15,2.77,2.32,5.73,4.59,7.85,7.4,3.45,4.55,1.06,8.77-4.82,9.37-7.55.77-14.3-1.37-20.62-5A2.51,2.51,0,0,1,35,48,123,123,0,0,1,35,34.8c.37-4.59,3.25-7.61,7.08-8.3,1.82-.33,3.68-.46,5.5-.81C50.23,25.2,53,24.89,55.1,22.87ZM5.69,74.43a2.13,2.13,0,0,1-.51-.3C.81,69.21-1.17,63.66.7,57.3,3.11,49.13,8.28,46,15.95,46.58A35.85,35.85,0,0,1,32.2,52.2c6.3,3.86,12.95,6.9,20.56,7.58,4.44.39,8.41-.61,11.43-3.94a3.37,3.37,0,0,0,.43-1l.76.46c-.34,1.88-.53,3.79-1.05,5.62C62.39,67.72,58.61,73,50.8,74.58c-5.17,1-10.2,0-15.1-1.5-5.16-1.62-10.23-3.48-15.42-5A22.69,22.69,0,0,0,9.87,67c-2.92.51-4.51,2.25-4.45,5C5.44,72.84,5.59,73.6,5.69,74.43Z"/><text class="cls-2" transform="translate(89.14 58.93) scale(0.96 1)">Sally<tspan class="cls-3" x="110.14" y="0">Sales</tspan></text></g></g></svg>